# This file uses centimeters as units for non-parametric coordinates.

v 0.282923 0.195625 0.377538
v 0.282923 0.195625 -0.377538
v -0.282923 0.195625 0.377538
v -0.282923 0.195625 -0.377538
v -0.282923 -1.376578 0.377538
v -0.282923 -1.376578 -0.377538
v 0.282923 -1.376578 0.377538
v 0.282923 -1.376578 -0.377538
v 0.282923 0.917185 0.377538
v 0.282923 0.917185 -0.377538
v -0.282923 0.917185 -0.377538
v -0.282923 0.917185 0.377538
v 0.282923 0.195625 -1.013547
v -0.282923 0.195625 -1.013547
v 0.282923 0.195625 1.013547
v -0.282923 0.195625 1.013547
v 0.282923 1.376578 0.033498
v 0.282923 1.376578 -0.033498
v -0.282923 1.376578 -0.033498
v -0.282923 1.376578 0.033498
vt 0.375000 0.000000
vt 0.625000 0.000000
vt 0.375000 0.250000
vt 0.625000 0.250000
vt 0.375000 0.250000
vt 0.625000 0.250000
vt 0.375000 0.500000
vt 0.625000 0.500000
vt 0.375000 0.750000
vt 0.625000 0.750000
vt 0.375000 1.000000
vt 0.625000 1.000000
vt 0.625000 0.000000
vt 0.875000 0.000000
vt 0.875000 0.250000
vt 0.125000 0.000000
vt 0.375000 0.000000
vt 0.125000 0.250000
vt 0.375000 0.000000
vt 0.625000 0.000000
vt 0.625000 0.000000
vt 0.625000 0.250000
vt 0.625000 0.250000
vt 0.375000 0.250000
vt 0.375000 0.250000
vt 0.375000 0.000000
vn 0.000000 1.000000 -0.000006
vn 0.000000 1.000000 -0.000003
vn 0.000000 1.000000 -0.000003
vn 0.000000 1.000000 0.000001
vn -1.000000 -0.000000 -0.000000
vn -1.000000 0.000000 0.000000
vn -1.000000 -0.000000 -0.000000
vn -1.000000 -0.000000 -0.000000
vn 0.000000 -1.000000 0.000000
vn 0.000000 -1.000000 -0.000000
vn 0.000000 -1.000000 -0.000000
vn 0.000000 -1.000000 -0.000000
vn 1.000000 -0.000000 0.000000
vn 1.000000 -0.000000 0.000000
vn 1.000000 -0.000000 0.000000
vn 1.000000 0.000000 -0.000000
vn 0.000000 0.000000 -1.000000
vn 0.000000 0.000000 -1.000000
vn 0.000000 0.000000 -1.000000
vn 0.000000 0.000000 -1.000000
vn 0.000000 0.000000 1.000000
vn 0.000000 0.000000 1.000000
vn 0.000000 0.000000 1.000000
vn 0.000000 0.000000 1.000000
vn 1.000000 0.000000 -0.000000
vn 1.000000 -0.000000 0.000000
vn 0.000000 0.661235 -0.750179
vn 0.000000 0.661235 -0.750179
vn 0.000000 0.661235 -0.750179
vn 0.000000 0.661235 -0.750179
vn -1.000000 0.000000 -0.000000
vn -1.000000 -0.000000 -0.000000
vn -0.000000 0.661235 0.750179
vn 0.000000 0.661235 0.750179
vn 0.000000 0.661235 0.750179
vn 0.000000 0.661235 0.750179
vn 0.000000 -1.000000 0.000000
vn -0.000000 -1.000000 0.000000
vn -0.000000 -1.000000 0.000000
vn -0.000000 -1.000000 0.000000
vn -1.000000 0.000000 0.000000
vn 1.000000 0.000000 0.000000
vn 0.000000 -1.000000 0.000000
vn -0.000000 -1.000000 0.000000
vn -0.000000 -1.000000 0.000000
vn -0.000000 -1.000000 0.000000
vn 1.000000 0.000000 -0.000000
vn -1.000000 -0.000000 0.000000
vn 1.000000 -0.000000 0.000000
vn 1.000000 -0.000000 0.000001
vn 0.000000 0.599437 -0.800422
vn 0.000000 0.599436 -0.800422
vn 0.000000 0.599436 -0.800422
vn 0.000000 0.599436 -0.800422
vn -1.000000 -0.000000 -0.000001
vn -1.000000 -0.000000 -0.000001
vn 0.000000 0.599437 0.800422
vn 0.000000 0.599436 0.800422
vn 0.000000 0.599436 0.800422
vn 0.000000 0.599436 0.800423
s 1
f 17/1/1 18/2/2 20/3/3
f 20/3/3 18/2/2 19/4/4
s 2
f 3/5/5 4/6/6 5/7/7
f 5/7/7 4/6/6 6/8/8
s 3
f 5/7/9 6/8/10 7/9/11
f 7/9/11 6/8/10 8/10/12
s 4
f 7/9/13 8/10/14 1/11/15
f 1/11/15 8/10/14 2/12/16
s 5
f 2/13/17 8/14/18 4/6/19
f 4/6/19 8/14/18 6/15/20
s 6
f 7/16/21 1/17/22 5/18/23
f 5/18/23 1/17/22 3/5/24
s 4
f 1/17/15 2/13/16 9/19/25
f 9/19/25 2/13/16 10/20/26
s 7
f 13/21/27 14/22/28 10/20/29
f 10/20/29 14/22/28 11/23/30
s 2
f 4/6/6 3/5/5 11/23/31
f 11/23/31 3/5/5 12/24/32
s 8
f 16/25/33 15/26/34 12/24/35
f 12/24/35 15/26/34 9/19/36
s 9
f 2/13/37 4/6/38 13/21/39
f 13/21/39 4/6/38 14/22/40
s 2
f 4/6/6 11/23/31 14/22/41
s 4
f 10/20/26 2/13/16 13/21/42
s 10
f 3/5/43 1/17/44 16/25/45
f 16/25/45 1/17/44 15/26/46
s 4
f 1/17/15 9/19/25 15/26/47
s 2
f 12/24/32 3/5/5 16/25/48
s 4
f 9/19/25 10/20/26 17/1/49
f 10/20/26 18/2/50 17/1/49
s 11
f 10/20/51 11/23/52 18/2/53
f 18/2/53 11/23/52 19/4/54
s 2
f 11/23/31 12/24/32 19/4/55
f 12/24/32 20/3/56 19/4/55
s 12
f 12/24/57 9/19/58 20/3/59
f 20/3/59 9/19/58 17/1/60
