# This file uses centimeters as units for non-parametric coordinates.

v 0.670661 0.217911 -0.174601
v 0.570498 0.414491 -0.174601
v 0.414491 0.570498 -0.174601
v 0.217911 0.670661 -0.174601
v 0.000000 0.705175 -0.174601
v -0.217911 0.670661 -0.174601
v -0.414491 0.570498 -0.174601
v -0.570498 0.414491 -0.174601
v -0.670661 0.217911 -0.174601
v -0.705174 -0.000000 -0.174601
v -0.670661 -0.217911 -0.174601
v -0.570498 -0.414491 -0.174601
v -0.414491 -0.570498 -0.174601
v -0.217911 -0.670661 -0.174601
v -0.000000 -0.705174 -0.174601
v 0.217911 -0.670661 -0.174601
v 0.414491 -0.570498 -0.174601
v 0.570498 -0.414491 -0.174601
v 0.670660 -0.217911 -0.174601
v 0.705174 -0.000000 -0.174601
v 0.670661 0.217911 0.174601
v 0.570498 0.414491 0.174601
v 0.414491 0.570498 0.174601
v 0.217911 0.670661 0.174601
v 0.000000 0.705175 0.174601
v -0.217911 0.670661 0.174601
v -0.414491 0.570498 0.174601
v -0.570498 0.414491 0.174601
v -0.670661 0.217911 0.174601
v -0.705174 0.000000 0.174601
v -0.670661 -0.217911 0.174601
v -0.570498 -0.414491 0.174601
v -0.414491 -0.570498 0.174601
v -0.217911 -0.670661 0.174601
v -0.000000 -0.705174 0.174601
v 0.217911 -0.670661 0.174601
v 0.414491 -0.570498 0.174601
v 0.570498 -0.414491 0.174601
v 0.670660 -0.217911 0.174601
v 0.705174 0.000000 0.174601
v 0.000000 -0.000000 -0.174601
v 0.000000 0.000000 0.174601
vt 0.980409 0.167030
vt 0.947650 0.102737
vt 0.896627 0.051714
vt 0.832334 0.018955
vt 0.761065 0.007667
vt 0.689796 0.018955
vt 0.625503 0.051714
vt 0.574480 0.102737
vt 0.541721 0.167030
vt 0.530433 0.238299
vt 0.541721 0.309568
vt 0.574480 0.373861
vt 0.625503 0.424884
vt 0.689796 0.457643
vt 0.761065 0.468931
vt 0.832334 0.457643
vt 0.896627 0.424884
vt 0.947650 0.373861
vt 0.980409 0.309568
vt 0.991697 0.238299
vt 0.870280 0.523579
vt 0.894057 0.523592
vt 0.894055 0.987198
vt 0.870279 0.987185
vt 0.917835 0.523613
vt 0.917832 0.987219
vt 0.941609 0.987245
vt 0.965390 0.523668
vt 0.513623 0.523697
vt 0.513619 0.987303
vt 0.537400 0.523723
vt 0.537397 0.987329
vt 0.561176 0.523743
vt 0.561174 0.987350
vt 0.584953 0.523757
vt 0.584952 0.987363
vt 0.608730 0.523761
vt 0.608730 0.987368
vt 0.632506 0.523757
vt 0.632508 0.987363
vt 0.656283 0.523743
vt 0.656285 0.987350
vt 0.680060 0.523723
vt 0.680063 0.987329
vt 0.703837 0.523697
vt 0.703840 0.987303
vt 0.727614 0.523668
vt 0.727618 0.987274
vt 0.751391 0.523639
vt 0.751395 0.987245
vt 0.775169 0.523613
vt 0.775172 0.987219
vt 0.798946 0.523592
vt 0.798949 0.987198
vt 0.822724 0.523579
vt 0.822725 0.987185
vt 0.846502 0.523574
vt 0.846502 0.987180
vt 0.980409 0.167030
vt 0.947650 0.102737
vt 0.474271 0.168559
vt 0.441630 0.104497
vt 0.390791 0.053658
vt 0.326730 0.021017
vt 0.255718 0.009770
vt 0.184705 0.021017
vt 0.120644 0.053658
vt 0.069805 0.104498
vt 0.037164 0.168559
vt 0.025917 0.239571
vt 0.037164 0.310583
vt 0.069805 0.374644
vt 0.120644 0.425484
vt 0.184705 0.458124
vt 0.255718 0.469371
vt 0.326730 0.458124
vt 0.390791 0.425484
vt 0.441630 0.374644
vt 0.474271 0.310583
vt 0.485518 0.239571
vt 0.761065 0.229074
vt 0.255718 0.230379
vt 0.485518 0.239571
vt 0.255718 0.230379
vt 0.255718 0.230379
vt 0.255718 0.230379
vt 0.255718 0.230379
vt 0.255718 0.230379
vt 0.255718 0.230379
vt 0.255718 0.230379
vt 0.255718 0.230379
vt 0.255718 0.230379
vt 0.255718 0.230379
vt 0.255718 0.230379
vt 0.255718 0.230379
vt 0.255718 0.230379
vt 0.255718 0.230379
vt 0.255718 0.230379
vt 0.255718 0.230379
vt 0.255718 0.230379
vt 0.255718 0.230379
vt 0.255718 0.230379
vt 0.474271 0.168559
vt 0.441630 0.104497
vt 0.390791 0.053658
vt 0.326730 0.021017
vt 0.255718 0.009770
vt 0.184705 0.021017
vt 0.120644 0.053658
vt 0.069805 0.104498
vt 0.037164 0.168559
vt 0.025917 0.239571
vt 0.037164 0.310583
vt 0.069805 0.374644
vt 0.120644 0.425484
vt 0.184705 0.458124
vt 0.255718 0.469371
vt 0.326730 0.458124
vt 0.390791 0.425484
vt 0.441630 0.374644
vt 0.474271 0.310583
vt 0.761065 0.229074
vt 0.761065 0.229074
vt 0.761065 0.229074
vt 0.761065 0.229074
vt 0.761065 0.229074
vt 0.761065 0.229074
vt 0.761065 0.229074
vt 0.761065 0.229074
vt 0.761065 0.229074
vt 0.761065 0.229074
vt 0.761065 0.229074
vt 0.761065 0.229074
vt 0.761065 0.229074
vt 0.761065 0.229074
vt 0.761065 0.229074
vt 0.761065 0.229074
vt 0.761065 0.229074
vt 0.761065 0.229074
vt 0.761065 0.229074
vt 0.991697 0.238299
vt 0.980409 0.309568
vt 0.947650 0.373861
vt 0.896627 0.424884
vt 0.832334 0.457643
vt 0.761065 0.468931
vt 0.689796 0.457643
vt 0.625503 0.424884
vt 0.574480 0.373861
vt 0.541721 0.309568
vt 0.530433 0.238299
vt 0.541721 0.167030
vt 0.574480 0.102737
vt 0.625503 0.051714
vt 0.689796 0.018955
vt 0.761065 0.007667
vt 0.832334 0.018955
vt 0.896627 0.051714
vt 0.941612 0.523639
vt 0.965386 0.987274
vt 0.989163 0.987303
vt 0.989167 0.523697
vt 0.846502 0.523574
vt 0.846502 0.987180
vt 0.822724 0.523579
vt 0.822725 0.987185
vt 0.798946 0.523592
vt 0.798949 0.987198
vt 0.775169 0.523613
vt 0.775172 0.987219
vt 0.751391 0.523639
vt 0.751395 0.987245
vt 0.727614 0.523668
vt 0.727618 0.987274
vt 0.703837 0.523697
vt 0.703840 0.987303
vt 0.680060 0.523723
vt 0.680063 0.987329
vt 0.656283 0.523743
vt 0.656285 0.987350
vt 0.632506 0.523757
vt 0.632508 0.987363
vt 0.608730 0.523761
vt 0.608730 0.987368
vt 0.584953 0.523757
vt 0.584952 0.987363
vt 0.561176 0.523743
vt 0.561174 0.987350
vt 0.537400 0.523723
vt 0.537397 0.987329
vt 0.965390 0.523668
vt 0.965386 0.987274
vt 0.941612 0.523639
vt 0.941609 0.987245
vt 0.917835 0.523613
vt 0.917832 0.987219
vt 0.894057 0.523592
vt 0.894055 0.987198
vt 0.870280 0.523579
vt 0.870279 0.987185
vn 0.966026 0.258445 0.000000
vn 0.838881 0.544315 0.000000
vn 0.933442 0.358728 0.000000
vn 0.776903 0.629620 0.000000
vn 0.629620 0.776903 0.000000
vn 0.544315 0.838881 0.000000
vn 0.358728 0.933442 0.000000
vn 0.258446 0.966026 0.000000
vn 0.052721 0.998609 0.000000
vn -0.052721 0.998609 0.000000
vn -0.258446 0.966026 0.000000
vn -0.358728 0.933442 0.000000
vn -0.544316 0.838881 0.000000
vn -0.629621 0.776903 0.000000
vn -0.776903 0.629620 0.000000
vn -0.838881 0.544315 0.000000
vn -0.933442 0.358728 0.000000
vn -0.966026 0.258446 0.000000
vn -0.998609 0.052721 0.000000
vn -0.998609 -0.052721 0.000000
vn -0.966026 -0.258446 0.000000
vn -0.933442 -0.358728 0.000000
vn -0.838881 -0.544315 0.000000
vn -0.776903 -0.629621 0.000000
vn -0.629620 -0.776903 0.000000
vn -0.544315 -0.838881 0.000000
vn -0.358728 -0.933442 0.000000
vn -0.258446 -0.966026 0.000000
vn -0.052721 -0.998609 0.000000
vn 0.052721 -0.998609 0.000000
vn 0.258446 -0.966026 0.000000
vn 0.358728 -0.933442 0.000000
vn 0.544315 -0.838881 0.000000
vn 0.629620 -0.776903 0.000000
vn 0.776903 -0.629620 0.000000
vn 0.838881 -0.544315 0.000000
vn 0.933442 -0.358728 0.000000
vn 0.966026 -0.258446 0.000000
vn 0.998609 -0.052722 0.000000
vn 0.998609 0.052720 0.000000
vn 0.000000 0.000000 -1.000000
vn 0.000000 0.000000 -1.000000
vn 0.000000 0.000000 -1.000000
vn 0.000000 0.000000 -1.000000
vn 0.000000 0.000000 -1.000000
vn 0.000000 0.000000 -1.000000
vn 0.000000 0.000000 -1.000000
vn 0.000000 0.000000 -1.000000
vn 0.000000 0.000000 -1.000000
vn 0.000000 0.000000 -1.000000
vn 0.000000 0.000000 -1.000000
vn 0.000000 0.000000 -1.000000
vn 0.000000 0.000000 -1.000000
vn 0.000000 0.000000 -1.000000
vn 0.000000 0.000000 -1.000000
vn 0.000000 0.000000 -1.000000
vn 0.000000 0.000000 -1.000000
vn 0.000000 0.000000 -1.000000
vn 0.000000 0.000000 -1.000000
vn 0.000000 0.000000 -1.000000
vn 0.000000 0.000000 -1.000000
vn 0.000000 0.000000 1.000000
vn 0.000000 0.000000 1.000000
vn 0.000000 0.000000 1.000000
vn 0.000000 0.000000 1.000000
vn 0.000000 0.000000 1.000000
vn 0.000000 0.000000 1.000000
vn 0.000000 0.000000 1.000000
vn 0.000000 0.000000 1.000000
vn 0.000000 0.000000 1.000000
vn 0.000000 0.000000 1.000000
vn 0.000000 0.000000 1.000000
vn 0.000000 0.000000 1.000000
vn 0.000000 0.000000 1.000000
vn 0.000000 0.000000 1.000000
vn 0.000000 0.000000 1.000000
vn 0.000000 0.000000 1.000000
vn 0.000000 0.000000 1.000000
vn 0.000000 0.000000 1.000000
vn 0.000000 0.000000 1.000000
vn 0.000000 0.000000 1.000000
vn 0.000000 0.000000 1.000000
s 1
f 1/199/1 2/22/2 21/24/3
f 21/24/3 2/22/2 22/198/4
f 2/197/2 3/25/5 22/23/4
f 22/23/4 3/25/5 23/196/6
f 3/195/5 4/159/7 23/26/6
f 23/26/6 4/159/7 24/194/8
f 4/193/7 5/28/9 24/27/8
f 24/27/8 5/28/9 25/192/10
f 5/191/9 6/162/11 25/160/10
f 25/160/10 6/162/11 26/161/12
f 6/29/11 7/31/13 26/30/12
f 26/30/12 7/31/13 27/190/14
f 7/189/13 8/33/15 27/32/14
f 27/32/14 8/33/15 28/188/16
f 8/187/15 9/35/17 28/34/16
f 28/34/16 9/35/17 29/186/18
f 9/185/17 10/37/19 29/36/18
f 29/36/18 10/37/19 30/184/20
f 10/183/19 11/39/21 30/38/20
f 30/38/20 11/39/21 31/182/22
f 11/181/21 12/41/23 31/40/22
f 31/40/22 12/41/23 32/180/24
f 12/179/23 13/43/25 32/42/24
f 32/42/24 13/43/25 33/178/26
f 13/177/25 14/45/27 33/44/26
f 33/44/26 14/45/27 34/176/28
f 14/175/27 15/47/29 34/46/28
f 34/46/28 15/47/29 35/174/30
f 15/173/29 16/49/31 35/48/30
f 35/48/30 16/49/31 36/172/32
f 16/171/31 17/51/33 36/50/32
f 36/50/32 17/51/33 37/170/34
f 17/169/33 18/53/35 37/52/34
f 37/52/34 18/53/35 38/168/36
f 18/167/35 19/55/37 38/54/36
f 38/54/36 19/55/37 39/166/38
f 19/165/37 20/57/39 39/56/38
f 39/56/38 20/57/39 40/164/40
f 20/163/39 1/21/1 40/58/40
f 40/58/40 1/21/1 21/200/3
s 2
f 2/2/41 1/59/42 41/122/43
f 3/3/44 2/60/41 41/123/43
f 4/4/45 3/158/44 41/124/43
f 5/5/46 4/157/45 41/125/43
f 6/6/47 5/156/46 41/126/43
f 7/7/48 6/155/47 41/127/43
f 8/8/49 7/154/48 41/128/43
f 9/9/50 8/153/49 41/129/43
f 10/10/51 9/152/50 41/130/43
f 11/11/52 10/151/51 41/131/43
f 12/12/53 11/150/52 41/132/43
f 13/13/54 12/149/53 41/133/43
f 14/14/55 13/148/54 41/134/43
f 15/15/56 14/147/55 41/135/43
f 16/16/57 15/146/56 41/136/43
f 17/17/58 16/145/57 41/137/43
f 18/18/59 17/144/58 41/138/43
f 19/19/60 18/143/59 41/139/43
f 20/20/61 19/142/60 41/140/43
f 1/1/42 20/141/61 41/81/43
s 3
f 21/79/62 22/120/63 42/101/64
f 22/78/63 23/119/65 42/100/64
f 23/77/65 24/118/66 42/99/64
f 24/76/66 25/117/67 42/98/64
f 25/75/67 26/116/68 42/97/64
f 26/74/68 27/115/69 42/96/64
f 27/73/69 28/114/70 42/95/64
f 28/72/70 29/113/71 42/94/64
f 29/71/71 30/112/72 42/93/64
f 30/70/72 31/111/73 42/92/64
f 31/69/73 32/110/74 42/91/64
f 32/68/74 33/109/75 42/90/64
f 33/67/75 34/108/76 42/89/64
f 34/66/76 35/107/77 42/88/64
f 35/65/77 36/106/78 42/87/64
f 36/64/78 37/105/79 42/86/64
f 37/63/79 38/104/80 42/85/64
f 38/62/80 39/103/81 42/84/64
f 39/61/81 40/83/82 42/82/64
f 40/80/82 21/121/62 42/102/64
